<svg xmlns="http://www.w3.org/2000/svg" viewBox="0 0 360 360"><path fill="#ffffff" stroke="#ffffff" d="M163.5 22.184c-5.068 2.967-5.973 8.434-2.045 12.361 2.999 3 6.415 3.132 9.91.382 6.654-5.234-.605-16.995-7.865-12.743m21.729-.515c-.699.282-1.972 1.867-2.829 3.524-4.006 7.748 5.922 14.576 12.145 8.352 6.005-6.004-1.172-15.152-9.316-11.876M131.5 28.373C65.726 52.294 21.845 117.854 25.663 186.5c.757 13.619.313 13.154 7.858 8.233l6.491-4.233.37-15C41.87 115.209 78.948 63.364 135.5 42.499c14.127-5.212 16.985-9.105 11.045-15.044-3.114-3.115-4.126-3.053-15.045.918M337.051 51.75c-11.585 7.783-13.932 11.051-12.044 16.772 1.474 4.464 5.37 7.478 9.666 7.478 3.827 0 19.477-9.833 23.216-14.586 3.679-4.677 2.287-11.117-3.114-14.41-4.998-3.047-6.872-2.545-17.724 4.746M164.5 63.964c-47.511 5.639-86.626 38.164-101.378 84.298-4.915 15.367-5.585 15.214 14.128 3.228 19.45-11.826 21.882-12.512 26.827-7.567 3.692 3.692 3.968 8.807.673 12.458-1.237 1.371-24.075 15.592-50.75 31.603-26.675 16.011-49.737 30.447-51.25 32.08-4.164 4.494-3.897 10.713.673 15.701 4.928 5.377 10.507 5.268 19.577-.383 11.554-7.198 10.44-7.189 13.008-.101 4.805 13.263 15.24 31.492 24.717 43.179l4.022 4.96-14.335 8.35C33.936 301.367 31 304.189 31 310.429c0 8.656 8.701 15.632 16.041 12.862 2.577-.973 58.474-33.364 117.411-68.037 18.022-10.602 19.697-11.173 24.323-8.292 5.336 3.323 6.509 9.831 2.56 14.213-.83.921-13.61 9.021-28.4 18s-26.901 16.608-26.913 16.954c-.071 2.022 18.301 6.577 31.616 7.838 86.127 8.161 152.9-77.693 124.24-159.742-18.423-52.743-72.442-86.781-127.378-80.261M339 103.292c-14.416 7.764-27.588 16.55-29.361 19.587-3.818 6.536 1.355 14.633 9.282 14.528 4.788-.063 33.139-17.05 34.897-20.908 4.548-9.98-5.003-18.492-14.818-13.207m-168 45.395c-5.159 2.074-19.412 13.055-20.583 15.857-2.388 5.716 1.048 11.89 7.268 13.057 3.395.637 19.016-8.298 23.855-13.645 5.844-6.458-2.476-18.512-10.54-15.269m50.085 24.257C205.31 182.56 204 183.772 204 188.757c0 6.271 5.913 11.319 11.323 9.666 3.746-1.144 29.063-16.524 31.427-19.091 3.3-3.584 3.022-8.714-.673-12.409-4.964-4.964-8.282-4.165-24.992 6.021M80 201.234c-18.924 10.925-32.252 19.26-32.711 20.456-.546 1.423 5.756 18.365 6.658 17.899 5.65-2.914 41.39-25.304 42.697-26.748 2.735-3.022 2.397-9.255-.667-12.317-4.312-4.309-7.531-4.167-15.977.71m48 23.436c-1.777.695-59.085 35.267-60.412 36.445-.925.821 2.002 5.507 7.277 11.648l2.802 3.262 29.416-17.079c16.18-9.394 30.204-18 31.167-19.124 5.592-6.531-2.334-18.247-10.25-15.152m194.003 6.623c-1.64.83-4.229 4.683-7.548 11.235-20.305 40.081-54.398 67.025-97.73 77.239-14.653 3.453-45.608 3.931-59.725.921-18.391-3.922-35.779-10.962-50.459-20.43l-6.959-4.488-4.211 2.301c-8.145 4.449-9.193 5.577-6.871 7.395 77.534 60.722 195.443 32.671 239.144-56.893 5.622-11.523 5.669-14.326.284-17.11-3.368-1.742-2.848-1.727-5.925-.17" fill-rule="evenodd"/><path fill="#ffffff" stroke="#ffffff" d="M186.017 22.293c-5.569 2.801-4.777 11.012 1.266 13.138 2.176.765 3.271.547 5.469-1.087 7.002-5.206 1.001-15.943-6.735-12.051m-23.794 1.264c-2.86 2.003-3.092 8.347-.394 10.788 2.617 2.369 7.676 2.102 10.132-.534 5.836-6.263-2.662-15.211-9.738-10.254M132.5 28.54C79.424 47.235 39.896 93.091 28.983 148.63c-2.378 12.1-3.63 35.897-2.316 44.027l.833 5.157 6.13-3.645 6.13-3.645.539-17.012c.739-23.347 3.957-36.807 13.682-57.231 16.506-34.663 48.787-63.513 84.257-75.303 10.484-3.485 12.943-6.935 8.746-12.271-2.658-3.379-5.279-3.409-14.484-.167m205.376 23.063C327.609 58.471 325 61.207 325 65.105c0 6.812 6.35 12.174 12.234 10.33 3.364-1.054 20.456-13.185 21.159-15.017 1.649-4.298.62-9.229-2.47-11.829-4.837-4.07-8.328-3.487-18.047 3.014M157.45 65.461c-41.143 7.474-75.29 35.399-90.854 74.299-3.115 7.786-6.971 21.24-6.088 21.24.182 0 7.435-4.331 16.117-9.624 21.567-13.147 24.716-13.783 29.49-5.956 5.273 8.648 5.486 8.472-51.98 42.989C-1.685 221.937-1.073 221.466.48 229.748c1.982 10.561 11.019 12.105 24.214 4.135 9.26-5.593 9.169-5.606 11.789 1.617 4.725 13.022 15.485 31.667 24.631 42.679 2.137 2.574 3.886 4.895 3.886 5.158 0 .262-6.777 4.402-15.061 9.198-8.283 4.797-15.729 9.741-16.546 10.987-5.471 8.35.298 19.478 10.097 19.478 3.732 0 10.563-3.709 59.115-32.102C179.875 245.711 181.131 245 183.646 245c8.43 0 13.421 9.927 8.099 16.107-1.235 1.433-14.383 9.968-29.219 18.965l-26.975 16.358 7.475 2.344c92.188 28.912 179.115-60.54 148.845-153.169-18.077-55.318-77.163-90.545-134.421-80.144m170.55 44.6c-15.654 9.309-19 12.396-19 17.532 0 4.861 4.475 9.407 9.262 9.407 5.585 0 33.453-17.073 35.374-21.672 2.817-6.741-1.823-13.356-9.336-13.311-1.691.01-8.149 3.197-16.3 8.044m-166.579 44.138c-13.701 9.521-15.789 14.524-8.926 21.387 4.319 4.319 8.718 3.407 19.526-4.047 11.664-8.046 13.954-11.809 10.862-17.855-3.947-7.717-9.817-7.576-21.462.515m73.488 10.165c-8.149 4.253-27.01 16.115-29.014 18.248-5.43 5.779-.753 16.388 7.223 16.388 3.234 0 27.874-13.977 33.033-18.738 8.336-7.693-1.18-21.148-11.242-15.898M66.096 209.065c-18.185 10.868-20.124 12.282-19.531 14.25 1.284 4.257 6.63 16.685 7.177 16.685 1.471 0 41.045-24.542 43.008-26.671 3.39-3.677 3.09-9.643-.673-13.406-5.083-5.083-7.316-4.402-29.981 9.142m30.93 33.485c-16.753 10.202-30.634 18.725-30.848 18.939-.469.469 7.969 11.558 10.21 13.418 1.837 1.525 55.311-28.545 61.362-34.506 4.638-4.568 4.199-10.323-1.117-14.629-4.855-3.933-7.302-2.896-39.607 16.778m223.699-10.3c-.912.688-2.752 3.748-4.091 6.801-34.837 79.476-136.708 109.187-210.713 61.454l-6.579-4.243-6.252 3.76-6.253 3.761 6.332 4.475c46.652 32.976 107.811 38.182 159.803 13.603 31.605-14.941 57.83-40.604 73.62-72.044 5.055-10.065 5.658-14.828 2.185-17.26-2.683-1.88-5.809-1.999-8.052-.307" fill-rule="evenodd"/><path fill="#ffffff" stroke="#ffffff" d="M163.5 23.195c-4.084 2.316-4.804 7.501-1.5 10.805 4.206 4.206 11.333 1.061 11.333-5 0-5.439-5.134-8.47-9.833-5.805m-3 42.19c-48.288 8.014-84.7 40.385-97.817 86.96-2.458 8.727-2.458 8.738-.322 7.354C78.792 149.058 95.159 140 97.958 140c7.642 0 12.73 10.313 8.034 16.283-1.105 1.405-23.942 15.69-50.75 31.747-26.808 16.056-49.979 30.5-51.492 32.097-4.195 4.43-3.923 10.9.65 15.473 5.037 5.037 8.917 4.709 19.485-1.647 4.612-2.774 8.793-5.135 9.291-5.248.498-.113 2.189 3.056 3.758 7.042 5.814 14.767 13.36 27.986 23.333 40.874l5.51 7.121-14.503 8.379C34.335 301.908 32 304.177 32 310.854c0 7.719 5.601 12.871 12.913 11.879 2.329-.316 23.923-12.394 61.587-34.449C185.187 242.209 180.181 245 184.126 245c7.052 0 12.139 7.075 9.525 13.25-1.868 4.415-1.871 4.418-29.651 21.215-30.706 18.567-28.943 16.792-19.261 19.404 32.116 8.666 64.823 4.951 91.808-10.427 67.932-38.713 81.994-129.865 28.763-186.45-26.666-28.347-67.869-42.738-104.81-36.607m9.678 83.136c-4.779 2.076-19.004 12.285-20.181 14.484-3.788 7.079 3.325 17.386 10.717 15.531 3.41-.856 19.767-11.956 21.713-14.735 3.638-5.195 1.149-12.827-5.026-15.407-3.928-1.641-3.119-1.655-7.223.127m51.723 23.039c-7.92 4.707-15.413 9.682-16.651 11.055-5.554 6.161-.802 16.385 7.615 16.385 5.473 0 33.313-16.509 35.734-21.191 2.174-4.204 1.104-9.04-2.71-12.249-5.071-4.267-7.909-3.557-23.988 6M66 208.656c-10.725 6.409-19.693 11.813-19.929 12.01-.621.519 2.552 10.049 5.178 15.55l2.251 4.716 20.469-12.458c24.065-14.646 25.304-15.702 25.304-21.567 0-3.533-.547-4.763-3.152-7.091-5.641-5.039-8.105-4.316-30.121 8.84m61.5 15.321c-6.572 2.793-60.983 37.002-60.883 38.278.139 1.754 10.411 14.823 11.285 14.356 13.018-6.961 59.244-34.509 60.848-36.263 6.615-7.231-2.284-20.182-11.25-16.371" fill-rule="evenodd"/></svg>
